<?xml version="1.0" encoding="UTF-8"?>
<svg width="341px" height="60px" viewBox="0 0 341 60" version="1.1" xmlns="http://www.w3.org/2000/svg" xmlns:xlink="http://www.w3.org/1999/xlink">
    <!-- Generator: Sketch 49.3 (51167) - http://www.bohemiancoding.com/sketch -->
    <title>logo-text</title>
    <desc>Created with Sketch.</desc>
    <defs></defs>
    <g id="logo-text" stroke="none" stroke-width="1" fill="none" fill-rule="evenodd">
        <g id="Group">
            <circle id="Oval" fill="#BE1313" cx="30" cy="30" r="30"></circle>
            <path d="M21.8924326,46.460177 C18.5183935,46.460177 16.9847393,45.1481786 16.9847393,40.9806545 C16.9847393,38.2408932 17.3681529,36.8131303 17.3681529,34.3820745 C17.3681529,33.031488 16.5629844,31.603725 14.0707965,31.5265487 L14.0707965,28.2079646 C16.5629844,28.1307882 17.3681529,26.7030253 17.3681529,25.3524388 C17.3681529,22.921383 16.9847393,21.4936201 16.9847393,18.7538588 C16.9847393,14.5863346 18.5183935,13.2743363 21.8924326,13.2743363 L24.3079379,13.2743363 L24.3079379,16.2842149 L23.5794522,16.2842149 C22.0074567,16.2842149 21.5473604,16.8630377 21.5473604,18.9853879 C21.5473604,21.06915 21.7007258,22.921383 21.7007258,25.2752624 C21.7007258,28.2079646 20.7805333,29.327022 18.8634657,29.7900803 L18.8634657,29.944433 C20.7805333,30.4074913 21.7007258,31.5265487 21.7007258,34.4592509 C21.7007258,36.8131303 21.5473604,38.6653632 21.5473604,40.7491253 C21.5473604,42.8714756 22.0074567,43.4502984 23.5794522,43.4502984 L24.3079379,43.4502984 L24.3079379,46.460177 L21.8924326,46.460177 Z M35.4265754,46.460177 L35.4265754,43.4502984 L36.1550611,43.4502984 C37.765398,43.4502984 38.1871529,42.8714756 38.1871529,40.7491253 C38.1871529,38.6653632 38.0337874,36.8131303 38.0337874,34.4592509 C38.0337874,31.5265487 38.9539799,30.4074913 40.8710476,29.944433 L40.8710476,29.7900803 C38.9539799,29.327022 38.0337874,28.2079646 38.0337874,25.2752624 C38.0337874,22.921383 38.1871529,21.06915 38.1871529,18.9853879 C38.1871529,16.8630377 37.765398,16.2842149 36.1550611,16.2842149 L35.4265754,16.2842149 L35.4265754,13.2743363 L37.8420807,13.2743363 C41.2161198,13.2743363 42.7497739,14.5863346 42.7497739,18.7538588 C42.7497739,21.4936201 42.3663604,22.921383 42.3663604,25.3524388 C42.3663604,26.7030253 43.1715288,28.1307882 45.6637168,28.2079646 L45.6637168,31.5265487 C43.1715288,31.603725 42.3663604,33.031488 42.3663604,34.3820745 C42.3663604,36.8131303 42.7497739,38.2408932 42.7497739,40.9806545 C42.7497739,45.1481786 41.2161198,46.460177 37.8420807,46.460177 L35.4265754,46.460177 Z" id="{-}" fill="#FFFFFF"></path>
        </g>
        <g id="Group-2" transform="translate(79.000000, 11.000000)">
            <path d="M141.106223,32.6625698 C138.753219,32.6625698 137,30.8301676 137,28.4480447 C137,26.0201117 138.753219,24.1877095 141.106223,24.1877095 C143.459227,24.1877095 145.212446,26.0201117 145.212446,28.4480447 C145.212446,30.8301676 143.459227,32.6625698 141.106223,32.6625698 Z M156.838627,32.6625698 C151.163735,32.6625698 148.949143,29.1351955 148.949143,23.8670391 L148.949143,14.6592179 L145.811804,14.6592179 L145.811804,9.66592179 L149.318241,9.39106145 L150.102576,3.34413408 L155.731331,3.34413408 L155.731331,9.39106145 L161.221674,9.39106145 L161.221674,14.6592179 L155.731331,14.6592179 L155.731331,23.775419 C155.731331,26.3407821 156.884764,27.3944134 158.68412,27.3944134 C159.422318,27.3944134 160.25279,27.1653631 160.852575,26.9363128 L161.913734,31.8379888 C160.714163,32.2044693 159.053219,32.6625698 156.838627,32.6625698 Z M174.601074,32.6625698 C168.78777,32.6625698 163.435839,28.3106145 163.435839,20.7519553 C163.435839,13.1932961 168.78777,8.84134078 174.601074,8.84134078 C180.368241,8.84134078 185.720172,13.1932961 185.720172,20.7519553 C185.720172,28.3106145 180.368241,32.6625698 174.601074,32.6625698 Z M174.601074,27.2111732 C177.369314,27.2111732 178.799571,24.6916201 178.799571,20.7519553 C178.799571,16.8122905 177.369314,14.2927374 174.601074,14.2927374 C171.786696,14.2927374 170.402576,16.8122905 170.402576,20.7519553 C170.402576,24.6916201 171.786696,27.2111732 174.601074,27.2111732 Z M190.287341,32.1128492 L190.287341,0 L196.88498,0 L196.88498,18.4156425 L197.069529,18.4156425 L204.313091,9.39106145 L211.695064,9.39106145 L203.667168,18.7363128 L212.29485,32.1128492 L204.959013,32.1128492 L199.791632,23.2715084 L196.88498,26.5240223 L196.88498,32.1128492 L190.287341,32.1128492 Z M218.015452,41 C216.631332,41 215.708585,40.8167598 214.785839,40.5418994 L215.985409,35.4111732 C216.400645,35.5027933 217.000431,35.6860335 217.507941,35.6860335 C219.768671,35.6860335 220.922104,34.4949721 221.52189,32.7083799 L221.844851,31.5173184 L213.03262,9.39106145 L219.860945,9.39106145 L223.136696,19.1486034 C223.782619,21.2100559 224.336267,23.3631285 224.936052,25.6078212 L225.120602,25.6078212 C225.628112,23.4547486 226.135623,21.301676 226.689271,19.1486034 L229.457511,9.39106145 L235.962875,9.39106145 L228.027254,32.3418994 C225.858799,38.0681564 223.41352,41 218.015452,41 Z M248.880902,32.6625698 C243.067598,32.6625698 237.715667,28.3106145 237.715667,20.7519553 C237.715667,13.1932961 243.067598,8.84134078 248.880902,8.84134078 C254.648069,8.84134078 260,13.1932961 260,20.7519553 C260,28.3106145 254.648069,32.6625698 248.880902,32.6625698 Z M248.880902,27.2111732 C251.649142,27.2111732 253.0794,24.6916201 253.0794,20.7519553 C253.0794,16.8122905 251.649142,14.2927374 248.880902,14.2927374 C246.066525,14.2927374 244.682405,16.8122905 244.682405,20.7519553 C244.682405,24.6916201 246.066525,27.2111732 248.880902,27.2111732 Z" id=".tokyo" fill="#787878"></path>
            <path d="M11.2853454,33 C4.92870189,33 0,28.6030856 0,20.9663394 C0,13.3295933 5.57357877,8.93267882 11.8841597,8.93267882 C14.6939804,8.93267882 16.8589242,9.95091164 18.5632417,11.3856942 L15.3849199,15.7826087 C14.2794167,14.8569425 13.358164,14.4403927 12.2987234,14.4403927 C9.02827636,14.4403927 6.95545781,16.9859748 6.95545781,20.9663394 C6.95545781,24.9467041 9.12040163,27.4922861 12.0684102,27.4922861 C13.5424145,27.4922861 14.9703562,26.7517532 16.1679847,25.826087 L18.8396175,30.2692847 C16.5825484,32.259467 13.7727277,33 11.2853454,33 Z M31.2761023,33 C25.4722104,33 20.1289448,28.6030856 20.1289448,20.9663394 C20.1289448,13.3295933 25.4722104,8.93267882 31.2761023,8.93267882 C37.0339316,8.93267882 42.3771972,13.3295933 42.3771972,20.9663394 C42.3771972,28.6030856 37.0339316,33 31.2761023,33 Z M31.2761023,27.4922861 C34.0398604,27.4922861 35.4678021,24.9467041 35.4678021,20.9663394 C35.4678021,16.9859748 34.0398604,14.4403927 31.2761023,14.4403927 C28.4662816,14.4403927 27.0844026,16.9859748 27.0844026,20.9663394 C27.0844026,24.9467041 28.4662816,27.4922861 31.2761023,27.4922861 Z M55.0900579,33 C49.4243538,33 45.7393431,28.4642356 45.7393431,20.9663394 C45.7393431,13.4684432 50.3916691,8.93267882 55.2282458,8.93267882 C57.7616907,8.93267882 59.2817576,9.85834502 60.8478872,11.3394109 L60.5715114,7.82187938 L60.5715114,0 L67.3427186,0 L67.3427186,32.4446003 L61.8152025,32.4446003 L61.3545761,30.1767181 L61.1703256,30.1767181 C59.5581334,31.7966339 57.3010643,33 55.0900579,33 Z M56.840438,27.4460028 C58.3144423,27.4460028 59.4660081,26.8906031 60.5715114,25.3632539 L60.5715114,15.9677419 C59.3738829,14.8569425 58.0380665,14.486676 56.7943753,14.486676 C54.6294315,14.486676 52.6948009,16.5231417 52.6948009,20.8737728 C52.6948009,25.4095372 54.2148678,27.4460028 56.840438,27.4460028 Z M83.4642142,33 C76.9233201,33 71.9024929,28.5568022 71.9024929,20.9663394 C71.9024929,13.5147265 77.1996959,8.93267882 82.6811494,8.93267882 C89.1759809,8.93267882 92.4003653,13.6998597 92.4003653,19.9481066 C92.4003653,21.1514727 92.2621774,22.401122 92.1239895,22.9565217 L78.443387,22.9565217 C79.0422013,26.2889201 81.345333,27.8162693 84.3854669,27.8162693 C86.0897844,27.8162693 87.6559139,27.3071529 89.3141688,26.2889201 L91.5712379,30.4081346 C89.2220435,32.0280505 86.1819096,33 83.4642142,33 Z M78.3973244,18.4670407 L86.642536,18.4670407 C86.642536,15.9214586 85.5370328,14.1164095 82.8193373,14.1164095 C80.7004561,14.1164095 78.8579508,15.5511921 78.3973244,18.4670407 Z M97.0062022,32.4446003 L97.0062022,9.48807854 L102.533718,9.48807854 L102.994345,13.5147265 L103.178595,13.5147265 C104.83685,10.4137447 107.324232,8.93267882 109.673427,8.93267882 C110.96318,8.93267882 111.746245,9.11781206 112.391122,9.39551192 L111.285619,15.2734923 C110.456492,15.0420757 109.765552,14.9032258 108.798237,14.9032258 C107.093919,14.9032258 104.975038,16.0140252 103.77741,19.115007 L103.77741,32.4446003 L97.0062022,32.4446003 Z M121.603223,33 C118.609151,33 115.154454,31.7040673 112.851322,29.8064516 L115.891456,25.5483871 C117.964274,27.1220196 119.852842,27.9551192 121.787473,27.9551192 C123.814229,27.9551192 124.689419,27.2145863 124.689419,26.0112202 C124.689419,24.483871 122.386287,23.7896213 120.037093,22.8639551 C117.273335,21.799439 114.002888,19.9018233 114.002888,16.1065919 C114.002888,11.8485273 117.457585,8.93267882 122.754788,8.93267882 C126.255549,8.93267882 128.835056,10.3674614 130.815749,11.8485273 L127.775616,15.9214586 C126.117361,14.7180926 124.551231,13.9775596 122.939039,13.9775596 C121.188659,13.9775596 120.359531,14.6255259 120.359531,15.7826087 C120.359531,17.2636746 122.478413,17.8190743 124.827607,18.6984572 C127.729553,19.7629734 131,21.3828892 131,25.5946704 C131,29.7601683 127.729553,33 121.603223,33 Z" id="coders" fill="#6DB593"></path>
        </g>
    </g>
</svg>